<svg height="512" viewBox="0 0 64 64" width="512" xmlns="http://www.w3.org/2000/svg" xmlns:xlink="http://www.w3.org/1999/xlink"><linearGradient id="New_Gradient_Swatch_1" gradientUnits="userSpaceOnUse" x1="32" x2="32" y1="1.768" y2="68.719"><stop offset="0" stop-color="#fff33b"/><stop offset=".014" stop-color="#fee72e"/><stop offset=".042" stop-color="#fed51b"/><stop offset=".07" stop-color="#fdca10"/><stop offset=".1" stop-color="#fdc70c"/><stop offset=".4" stop-color="#f3903f"/><stop offset=".8" stop-color="#ed683c"/><stop offset="1" stop-color="#e93e3a"/></linearGradient><linearGradient id="New_Gradient_Swatch_1-2" x1="45.5" x2="45.5" xlink:href="#New_Gradient_Swatch_1" y1="1.768" y2="68.719"/><linearGradient id="New_Gradient_Swatch_1-3" x1="47" x2="47" xlink:href="#New_Gradient_Swatch_1" y1="1.768" y2="68.719"/><g id="working-chair-desk-monitor-online"><path d="m62 37v-4a1 1 0 0 0 -1-1h-13v-1a3.009 3.009 0 0 0 -3-3h-1v-2h5a3.009 3.009 0 0 0 3-3v-18a3.009 3.009 0 0 0 -3-3h-34a3.009 3.009 0 0 0 -3 3v18a3.009 3.009 0 0 0 3 3h5v2h-1a3.009 3.009 0 0 0 -3 3v1h-13a1 1 0 0 0 -1 1v4a1 1 0 0 0 1 1h1.87l-2.86 22.88a.968.968 0 0 0 .24.78.981.981 0 0 0 .75.34h2a1 1 0 0 0 .96-.72l6.79-23.28h3.25v3a1 1 0 0 0 1 1h3v2a1 1 0 0 0 1 1h8v6h-7a1 1 0 0 0 -1 1v4.18a3 3 0 1 0 2 0v-3.18h8v3.18a3 3 0 1 0 2 0v-3.18h8v3.18a3 3 0 1 0 2 0v-4.18a1 1 0 0 0 -1-1h-7v-6h8a1 1 0 0 0 1-1v-2h3a1 1 0 0 0 1-1v-3h3.25l6.79 23.28a1 1 0 0 0 .96.72h2a.981.981 0 0 0 .75-.34.968.968 0 0 0 .24-.78l-2.86-22.88h1.87a1 1 0 0 0 1-1zm-57.75 23h-.12l2.75-22h3.79zm11.75-24h-12v-2h12zm4 4h-2v-9a1 1 0 0 1 1-1h1zm2 20a1 1 0 1 1 1-1 1 1 0 0 1 -1 1zm20-2a1 1 0 1 1 -1 1 1 1 0 0 1 1-1zm-10 2a1 1 0 1 1 1-1 1 1 0 0 1 -1 1zm1-9h-2v-6h2zm9-8h-20v-20a1 1 0 0 1 1-1h18a1 1 0 0 1 1 1zm-16-23v-2a6 6 0 0 1 12 0v2zm15 0h-1v-2a8 8 0 0 0 -16 0v2h-1a3.009 3.009 0 0 0 -3 3v1h-5a1 1 0 0 1 -1-1v-18a1 1 0 0 1 1-1h34a1 1 0 0 1 1 1v18a1 1 0 0 1 -1 1h-5v-1a3.009 3.009 0 0 0 -3-3zm5 20h-2v-10h1a1 1 0 0 1 1 1zm13.87 20h-.12l-6.42-22h3.79zm.13-24h-12v-2h12z" fill="url(#New_Gradient_Swatch_1)"/><path d="m46 11h2v-4a1 1 0 0 0 -1-1h-4v2h3z" fill="url(#New_Gradient_Swatch_1-2)"/><path d="m46 13h2v2h-2z" fill="url(#New_Gradient_Swatch_1-3)"/></g></svg>